<svg xmlns="http://www.w3.org/2000/svg" width="24" height="24" viewBox="0 0 24 24">
  <path fill="#ffffff" d="M12 .297C5.41.297 0 5.707 0 12.297c0 5.41 3.582 10.008 8.531 11.633.625.117.852-.269.852-.598v-2.062c-3.46.75-4.184-1.582-4.184-1.582-.563-1.434-1.375-1.816-1.375-1.816-1.125-.77.086-.754.086-.754 1.25.086 1.906 1.23 1.906 1.23 1.107 1.898 2.902 1.352 3.616 1.035.113-.805.432-1.352.787-1.663-2.75-.312-5.64-1.375-5.64-6.113 0-1.352.48-2.457 1.23-3.324-.117-.312-.547-1.578.117-3.29 0 0 1.008-.332 3.3 1.273.96-.266 1.986-.398 3.01-.398 1.024 0 2.047.133 3.047.398 2.29-1.605 3.297-1.273 3.297-1.273.664 1.711.234 2.977.117 3.29.75.867 1.23 1.972 1.23 3.324 0 4.75-2.895 5.8-5.66 6.113.445.386.844 1.152.844 2.32v3.43c0 .33.23.715.859.597C20.418 22.31 24 17.712 24 12.302c0-6.59-5.41-12-12-12z"/>
</svg>
